<svg xmlns="http://www.w3.org/2000/svg" width="23" height="18" viewBox="0 0 23 18">
    <path fill="#D40E0E" fill-rule="nonzero" d="M22.5 8.752c0 .6-.225 1.15-.6 1.526-3.476 3.45-7.077 5.201-10.728 5.201h-.25c-1-.025-1.926-.175-2.826-.4l1.4-1.4c.55.2 1.15.3 1.776.3a5.24 5.24 0 0 0 5.226-5.227c0-.625-.125-1.225-.3-1.75l2.476-2.476c1.1.75 2.2 1.65 3.276 2.726.325.35.55.9.55 1.5zm-11.253 3.476a3.469 3.469 0 0 0 3.476-3.476c0-.1 0-.225-.025-.325l-3.776 3.801h.325zm8.652-11.103L3.27 17.755a.706.706 0 0 1-.374.1.72.72 0 0 1-.526-.225c-.3-.3-.3-.775 0-1.05l2.726-2.726c-2.025-1.125-3.6-2.576-4.551-3.626-.725-.775-.725-2.176 0-2.951 1.75-1.926 5.451-5.126 10.378-5.251 1.675-.05 3.35.3 5.001 1l2.801-2.8c.3-.301.775-.301 1.05 0 .25.25.275.624.125.9zm-9.877 7.802c0-.05-.025-.125-.025-.175 0-.275-.226-.5-.5-.5-.276 0-.5.225-.5.5 0 .35.074.676.224.95l.8-.775zm4.35-4.35a5.224 5.224 0 0 0-3.125-1.051A5.24 5.24 0 0 0 6.02 8.752c0 1.176.4 2.251 1.05 3.126l1.251-1.25a3.437 3.437 0 0 1-.55-1.876 3.469 3.469 0 0 1 3.476-3.476c.7 0 1.325.2 1.875.55l1.25-1.25z"/>
</svg>
