<svg xmlns="http://www.w3.org/2000/svg" width="16" height="11" viewBox="0 0 16 11">
    <g fill="#D40E0E" fill-rule="nonzero">
        <path d="M8 8.828A3.023 3.023 0 0 0 10.707 4.5L6.696 8.523c.406.2.852.304 1.305.305zM10.13 3.675l1.15-1.15.75-.75.92-.922a.5.5 0 0 0-.7-.706l-1.2 1.2A8.803 8.803 0 0 0 8 .803a8.923 8.923 0 0 0-8 5 9 9 0 0 0 3.085 3.5l-.75.75a.5.5 0 1 0 .715.697l.923-.922.75-.75 1.15-1.15 4.257-4.253zm-6.325 4.91a7.922 7.922 0 0 1-2.67-2.783A7.89 7.89 0 0 1 10.25 2.14l-.945.945A2.96 2.96 0 0 0 8 2.78a3.022 3.022 0 0 0-2.707 4.318L3.805 8.585z"/>
        <path d="M12.92 2.297l-.723.723a7.942 7.942 0 0 1 2.668 2.783A7.873 7.873 0 0 1 8 9.794c-.762 0-1.52-.11-2.25-.328l-.795.795c.975.358 2.006.54 3.045.54a8.923 8.923 0 0 0 8-5 9.02 9.02 0 0 0-3.08-3.504z"/>
    </g>
</svg>
