<svg xmlns="http://www.w3.org/2000/svg" width="23" height="14" viewBox="0 0 23 14">
    <path fill="#000" fill-rule="nonzero" d="M21.9 5.18C18.349 1.655 14.648-.096 10.922.004 5.995.104 2.294 3.33.544 5.231c-.725.775-.725 2.15 0 2.95 1.75 1.9 5.451 5.127 10.378 5.252h.25c3.65 0 7.277-1.75 10.728-5.202.375-.375.6-.925.6-1.525 0-.6-.225-1.15-.6-1.526zm-10.653 6.752A5.24 5.24 0 0 1 6.02 6.706a5.24 5.24 0 0 1 5.227-5.227 5.24 5.24 0 0 1 5.226 5.227 5.24 5.24 0 0 1-5.226 5.226zm0-8.702A3.469 3.469 0 0 0 7.77 6.706a3.469 3.469 0 0 0 3.476 3.476 3.469 3.469 0 0 0 3.476-3.476 3.469 3.469 0 0 0-3.476-3.476zm0 5.727c-1.225 0-2.25-1-2.25-2.251 0-.275.224-.5.5-.5.274 0 .5.225.5.5 0 .675.55 1.25 1.25 1.25.275 0 .5.225.5.5s-.225.5-.5.5z" opacity=".3"/>
</svg>
