<svg xmlns="http://www.w3.org/2000/svg" width="23" height="13" viewBox="0 0 23 13">
    <path fill="#6090A9" fill-rule="nonzero" d="M22.386 5.014C18.756 1.6 14.973-.093 11.164.004 6.13.1 2.345 3.223.556 5.062c-.741.75-.741 2.081 0 2.856C2.346 9.757 6.129 12.879 11.164 13h.256c3.732 0 7.439-1.694 10.966-5.034.384-.363.614-.895.614-1.476s-.23-1.113-.614-1.476zm-10.89 6.534c-2.939 0-5.342-2.275-5.342-5.058s2.403-5.058 5.343-5.058 5.342 2.275 5.342 5.058-2.402 5.058-5.342 5.058zm0-8.422c-1.968 0-3.552 1.5-3.552 3.364 0 1.863 1.584 3.364 3.553 3.364 1.968 0 3.553-1.5 3.553-3.364 0-1.864-1.585-3.364-3.553-3.364zm0 5.542c-1.252 0-2.3-.968-2.3-2.178a.5.5 0 0 1 .511-.484.5.5 0 0 1 .512.484c0 .653.562 1.21 1.278 1.21a.5.5 0 0 1 .511.484.5.5 0 0 1-.511.484z"/>
</svg>
