<svg xmlns="http://www.w3.org/2000/svg" width="14" height="14" viewBox="0 0 14 14">
    <path fill="#FFF" fill-rule="nonzero" d="M13.786 12.753L10.405 9.37a5.82 5.82 0 0 0-.483-7.669A5.774 5.774 0 0 0 5.812 0a5.773 5.773 0 0 0-4.11 1.702A5.773 5.773 0 0 0 0 5.812c0 1.553.605 3.012 1.702 4.11a5.774 5.774 0 0 0 4.11 1.702c1.306 0 2.545-.43 3.56-1.219l3.38 3.381a.728.728 0 0 0 1.034 0 .73.73 0 0 0 0-1.033zM2.736 8.888A4.322 4.322 0 0 1 1.46 5.812c0-1.162.453-2.255 1.275-3.077a4.322 4.322 0 0 1 3.076-1.274c1.162 0 2.255.453 3.077 1.274a4.356 4.356 0 0 1 0 6.153 4.323 4.323 0 0 1-3.077 1.275 4.321 4.321 0 0 1-3.076-1.275z"/>
</svg>
