<svg xmlns="http://www.w3.org/2000/svg" width="28" height="12" viewBox="0 0 28 12">
    <path fill="#B2B2B2" fill-rule="evenodd" d="M1 0h26a1 1 0 0 1 .923 1.384l-1.852 4.45a1 1 0 0 0 .011.795l1.782 3.96A1 1 0 0 1 26.952 12H1a1 1 0 0 1-1-1V1a1 1 0 0 1 1-1zm1.76 9.41H4.05V4.845L6.808 9.41h1.39v-7H6.91v4.675L4.106 2.41H2.76v7zm6.704 0h5.21V8.23h-3.83V6.327h3.442v-1.18h-3.443V3.594h3.705V2.41H9.464v7zm7.153 0h1.5l1.356-5.233L20.84 9.41h1.47l1.665-7h-1.39L21.53 7.3l-1.203-4.89H18.68l-1.254 4.808L16.4 2.41h-1.42l1.637 7z"/>
</svg>
